<?xml version="1.0" encoding="utf-8" standalone="no"?>
<!DOCTYPE svg PUBLIC "-//W3C//DTD SVG 1.1//EN"
  "http://www.w3.org/Graphics/SVG/1.1/DTD/svg11.dtd">
<svg xmlns:xlink="http://www.w3.org/1999/xlink" width="648pt" height="345.6pt" viewBox="0 0 648 345.6" xmlns="http://www.w3.org/2000/svg" version="1.1">
 <metadata>
  <rdf:RDF xmlns:dc="http://purl.org/dc/elements/1.1/" xmlns:cc="http://creativecommons.org/ns#" xmlns:rdf="http://www.w3.org/1999/02/22-rdf-syntax-ns#">
   <cc:Work>
    <dc:type rdf:resource="http://purl.org/dc/dcmitype/StillImage"/>
    <dc:date>2026-05-27T11:55:22.628918</dc:date>
    <dc:format>image/svg+xml</dc:format>
    <dc:creator>
     <cc:Agent>
      <dc:title>Matplotlib v3.10.0, https://matplotlib.org/</dc:title>
     </cc:Agent>
    </dc:creator>
   </cc:Work>
  </rdf:RDF>
 </metadata>
 <defs>
  <style type="text/css">*{stroke-linejoin: round; stroke-linecap: butt}</style>
 </defs>
 <g id="figure_1">
  <g id="patch_1">
   <path d="M 0 345.6
L 648 345.6
L 648 0
L 0 0
z
" style="fill: #ffffff"/>
  </g>
  <g id="axes_1">
   <g id="patch_2">
    <path d="M 54.02 303.64
L 637.2 303.64
L 637.2 26.88
L 54.02 26.88
z
" style="fill: #ffffff"/>
   </g>
   <g id="matplotlib.axis_1">
    <g id="xtick_1">
     <g id="line2d_1">
      <path d="M 122.383206 303.64
L 122.383206 26.88
" clip-path="url(#p89ee1fbe6e)" style="fill: none; stroke: #b0b0b0; stroke-opacity: 0.3; stroke-width: 0.8; stroke-linecap: square"/>
     </g>
     <g id="line2d_2">
      <defs>
       <path id="m2cfaa2ba44" d="M 0 0
L 0 3.5
" style="stroke: #000000; stroke-width: 0.8"/>
      </defs>
      <g>
       <use xlink:href="#m2cfaa2ba44" x="122.383206" y="303.64" style="stroke: #000000; stroke-width: 0.8"/>
      </g>
     </g>
     <g id="text_1">
      <!-- 2.5 -->
      <g transform="translate(114.431643 318.238437) scale(0.1 -0.1)">
       <defs>
        <path id="DejaVuSans-32" d="M 1228 531
L 3431 531
L 3431 0
L 469 0
L 469 531
Q 828 903 1448 1529
Q 2069 2156 2228 2338
Q 2531 2678 2651 2914
Q 2772 3150 2772 3378
Q 2772 3750 2511 3984
Q 2250 4219 1831 4219
Q 1534 4219 1204 4116
Q 875 4013 500 3803
L 500 4441
Q 881 4594 1212 4672
Q 1544 4750 1819 4750
Q 2544 4750 2975 4387
Q 3406 4025 3406 3419
Q 3406 3131 3298 2873
Q 3191 2616 2906 2266
Q 2828 2175 2409 1742
Q 1991 1309 1228 531
z
" transform="scale(0.015625)"/>
        <path id="DejaVuSans-2e" d="M 684 794
L 1344 794
L 1344 0
L 684 0
L 684 794
z
" transform="scale(0.015625)"/>
        <path id="DejaVuSans-35" d="M 691 4666
L 3169 4666
L 3169 4134
L 1269 4134
L 1269 2991
Q 1406 3038 1543 3061
Q 1681 3084 1819 3084
Q 2600 3084 3056 2656
Q 3513 2228 3513 1497
Q 3513 744 3044 326
Q 2575 -91 1722 -91
Q 1428 -91 1123 -41
Q 819 9 494 109
L 494 744
Q 775 591 1075 516
Q 1375 441 1709 441
Q 2250 441 2565 725
Q 2881 1009 2881 1497
Q 2881 1984 2565 2268
Q 2250 2553 1709 2553
Q 1456 2553 1204 2497
Q 953 2441 691 2322
L 691 4666
z
" transform="scale(0.015625)"/>
       </defs>
       <use xlink:href="#DejaVuSans-32"/>
       <use xlink:href="#DejaVuSans-2e" transform="translate(63.623047 0)"/>
       <use xlink:href="#DejaVuSans-35" transform="translate(95.410156 0)"/>
      </g>
     </g>
    </g>
    <g id="xtick_2">
     <g id="line2d_3">
      <path d="M 192.141579 303.64
L 192.141579 26.88
" clip-path="url(#p89ee1fbe6e)" style="fill: none; stroke: #b0b0b0; stroke-opacity: 0.3; stroke-width: 0.8; stroke-linecap: square"/>
     </g>
     <g id="line2d_4">
      <g>
       <use xlink:href="#m2cfaa2ba44" x="192.141579" y="303.64" style="stroke: #000000; stroke-width: 0.8"/>
      </g>
     </g>
     <g id="text_2">
      <!-- 5.0 -->
      <g transform="translate(184.190016 318.238437) scale(0.1 -0.1)">
       <defs>
        <path id="DejaVuSans-30" d="M 2034 4250
Q 1547 4250 1301 3770
Q 1056 3291 1056 2328
Q 1056 1369 1301 889
Q 1547 409 2034 409
Q 2525 409 2770 889
Q 3016 1369 3016 2328
Q 3016 3291 2770 3770
Q 2525 4250 2034 4250
z
M 2034 4750
Q 2819 4750 3233 4129
Q 3647 3509 3647 2328
Q 3647 1150 3233 529
Q 2819 -91 2034 -91
Q 1250 -91 836 529
Q 422 1150 422 2328
Q 422 3509 836 4129
Q 1250 4750 2034 4750
z
" transform="scale(0.015625)"/>
       </defs>
       <use xlink:href="#DejaVuSans-35"/>
       <use xlink:href="#DejaVuSans-2e" transform="translate(63.623047 0)"/>
       <use xlink:href="#DejaVuSans-30" transform="translate(95.410156 0)"/>
      </g>
     </g>
    </g>
    <g id="xtick_3">
     <g id="line2d_5">
      <path d="M 261.899952 303.64
L 261.899952 26.88
" clip-path="url(#p89ee1fbe6e)" style="fill: none; stroke: #b0b0b0; stroke-opacity: 0.3; stroke-width: 0.8; stroke-linecap: square"/>
     </g>
     <g id="line2d_6">
      <g>
       <use xlink:href="#m2cfaa2ba44" x="261.899952" y="303.64" style="stroke: #000000; stroke-width: 0.8"/>
      </g>
     </g>
     <g id="text_3">
      <!-- 7.5 -->
      <g transform="translate(253.94839 318.238437) scale(0.1 -0.1)">
       <defs>
        <path id="DejaVuSans-37" d="M 525 4666
L 3525 4666
L 3525 4397
L 1831 0
L 1172 0
L 2766 4134
L 525 4134
L 525 4666
z
" transform="scale(0.015625)"/>
       </defs>
       <use xlink:href="#DejaVuSans-37"/>
       <use xlink:href="#DejaVuSans-2e" transform="translate(63.623047 0)"/>
       <use xlink:href="#DejaVuSans-35" transform="translate(95.410156 0)"/>
      </g>
     </g>
    </g>
    <g id="xtick_4">
     <g id="line2d_7">
      <path d="M 331.658325 303.64
L 331.658325 26.88
" clip-path="url(#p89ee1fbe6e)" style="fill: none; stroke: #b0b0b0; stroke-opacity: 0.3; stroke-width: 0.8; stroke-linecap: square"/>
     </g>
     <g id="line2d_8">
      <g>
       <use xlink:href="#m2cfaa2ba44" x="331.658325" y="303.64" style="stroke: #000000; stroke-width: 0.8"/>
      </g>
     </g>
     <g id="text_4">
      <!-- 10.0 -->
      <g transform="translate(320.525513 318.238437) scale(0.1 -0.1)">
       <defs>
        <path id="DejaVuSans-31" d="M 794 531
L 1825 531
L 1825 4091
L 703 3866
L 703 4441
L 1819 4666
L 2450 4666
L 2450 531
L 3481 531
L 3481 0
L 794 0
L 794 531
z
" transform="scale(0.015625)"/>
       </defs>
       <use xlink:href="#DejaVuSans-31"/>
       <use xlink:href="#DejaVuSans-30" transform="translate(63.623047 0)"/>
       <use xlink:href="#DejaVuSans-2e" transform="translate(127.246094 0)"/>
       <use xlink:href="#DejaVuSans-30" transform="translate(159.033203 0)"/>
      </g>
     </g>
    </g>
    <g id="xtick_5">
     <g id="line2d_9">
      <path d="M 401.416699 303.64
L 401.416699 26.88
" clip-path="url(#p89ee1fbe6e)" style="fill: none; stroke: #b0b0b0; stroke-opacity: 0.3; stroke-width: 0.8; stroke-linecap: square"/>
     </g>
     <g id="line2d_10">
      <g>
       <use xlink:href="#m2cfaa2ba44" x="401.416699" y="303.64" style="stroke: #000000; stroke-width: 0.8"/>
      </g>
     </g>
     <g id="text_5">
      <!-- 12.5 -->
      <g transform="translate(390.283886 318.238437) scale(0.1 -0.1)">
       <use xlink:href="#DejaVuSans-31"/>
       <use xlink:href="#DejaVuSans-32" transform="translate(63.623047 0)"/>
       <use xlink:href="#DejaVuSans-2e" transform="translate(127.246094 0)"/>
       <use xlink:href="#DejaVuSans-35" transform="translate(159.033203 0)"/>
      </g>
     </g>
    </g>
    <g id="xtick_6">
     <g id="line2d_11">
      <path d="M 471.175072 303.64
L 471.175072 26.88
" clip-path="url(#p89ee1fbe6e)" style="fill: none; stroke: #b0b0b0; stroke-opacity: 0.3; stroke-width: 0.8; stroke-linecap: square"/>
     </g>
     <g id="line2d_12">
      <g>
       <use xlink:href="#m2cfaa2ba44" x="471.175072" y="303.64" style="stroke: #000000; stroke-width: 0.8"/>
      </g>
     </g>
     <g id="text_6">
      <!-- 15.0 -->
      <g transform="translate(460.042259 318.238437) scale(0.1 -0.1)">
       <use xlink:href="#DejaVuSans-31"/>
       <use xlink:href="#DejaVuSans-35" transform="translate(63.623047 0)"/>
       <use xlink:href="#DejaVuSans-2e" transform="translate(127.246094 0)"/>
       <use xlink:href="#DejaVuSans-30" transform="translate(159.033203 0)"/>
      </g>
     </g>
    </g>
    <g id="xtick_7">
     <g id="line2d_13">
      <path d="M 540.933445 303.64
L 540.933445 26.88
" clip-path="url(#p89ee1fbe6e)" style="fill: none; stroke: #b0b0b0; stroke-opacity: 0.3; stroke-width: 0.8; stroke-linecap: square"/>
     </g>
     <g id="line2d_14">
      <g>
       <use xlink:href="#m2cfaa2ba44" x="540.933445" y="303.64" style="stroke: #000000; stroke-width: 0.8"/>
      </g>
     </g>
     <g id="text_7">
      <!-- 17.5 -->
      <g transform="translate(529.800632 318.238437) scale(0.1 -0.1)">
       <use xlink:href="#DejaVuSans-31"/>
       <use xlink:href="#DejaVuSans-37" transform="translate(63.623047 0)"/>
       <use xlink:href="#DejaVuSans-2e" transform="translate(127.246094 0)"/>
       <use xlink:href="#DejaVuSans-35" transform="translate(159.033203 0)"/>
      </g>
     </g>
    </g>
    <g id="xtick_8">
     <g id="line2d_15">
      <path d="M 610.691818 303.64
L 610.691818 26.88
" clip-path="url(#p89ee1fbe6e)" style="fill: none; stroke: #b0b0b0; stroke-opacity: 0.3; stroke-width: 0.8; stroke-linecap: square"/>
     </g>
     <g id="line2d_16">
      <g>
       <use xlink:href="#m2cfaa2ba44" x="610.691818" y="303.64" style="stroke: #000000; stroke-width: 0.8"/>
      </g>
     </g>
     <g id="text_8">
      <!-- 20.0 -->
      <g transform="translate(599.559006 318.238437) scale(0.1 -0.1)">
       <use xlink:href="#DejaVuSans-32"/>
       <use xlink:href="#DejaVuSans-30" transform="translate(63.623047 0)"/>
       <use xlink:href="#DejaVuSans-2e" transform="translate(127.246094 0)"/>
       <use xlink:href="#DejaVuSans-30" transform="translate(159.033203 0)"/>
      </g>
     </g>
    </g>
    <g id="text_9">
     <!-- epoch -->
     <g transform="translate(330.381875 331.916562) scale(0.1 -0.1)">
      <defs>
       <path id="DejaVuSans-65" d="M 3597 1894
L 3597 1613
L 953 1613
Q 991 1019 1311 708
Q 1631 397 2203 397
Q 2534 397 2845 478
Q 3156 559 3463 722
L 3463 178
Q 3153 47 2828 -22
Q 2503 -91 2169 -91
Q 1331 -91 842 396
Q 353 884 353 1716
Q 353 2575 817 3079
Q 1281 3584 2069 3584
Q 2775 3584 3186 3129
Q 3597 2675 3597 1894
z
M 3022 2063
Q 3016 2534 2758 2815
Q 2500 3097 2075 3097
Q 1594 3097 1305 2825
Q 1016 2553 972 2059
L 3022 2063
z
" transform="scale(0.015625)"/>
       <path id="DejaVuSans-70" d="M 1159 525
L 1159 -1331
L 581 -1331
L 581 3500
L 1159 3500
L 1159 2969
Q 1341 3281 1617 3432
Q 1894 3584 2278 3584
Q 2916 3584 3314 3078
Q 3713 2572 3713 1747
Q 3713 922 3314 415
Q 2916 -91 2278 -91
Q 1894 -91 1617 61
Q 1341 213 1159 525
z
M 3116 1747
Q 3116 2381 2855 2742
Q 2594 3103 2138 3103
Q 1681 3103 1420 2742
Q 1159 2381 1159 1747
Q 1159 1113 1420 752
Q 1681 391 2138 391
Q 2594 391 2855 752
Q 3116 1113 3116 1747
z
" transform="scale(0.015625)"/>
       <path id="DejaVuSans-6f" d="M 1959 3097
Q 1497 3097 1228 2736
Q 959 2375 959 1747
Q 959 1119 1226 758
Q 1494 397 1959 397
Q 2419 397 2687 759
Q 2956 1122 2956 1747
Q 2956 2369 2687 2733
Q 2419 3097 1959 3097
z
M 1959 3584
Q 2709 3584 3137 3096
Q 3566 2609 3566 1747
Q 3566 888 3137 398
Q 2709 -91 1959 -91
Q 1206 -91 779 398
Q 353 888 353 1747
Q 353 2609 779 3096
Q 1206 3584 1959 3584
z
" transform="scale(0.015625)"/>
       <path id="DejaVuSans-63" d="M 3122 3366
L 3122 2828
Q 2878 2963 2633 3030
Q 2388 3097 2138 3097
Q 1578 3097 1268 2742
Q 959 2388 959 1747
Q 959 1106 1268 751
Q 1578 397 2138 397
Q 2388 397 2633 464
Q 2878 531 3122 666
L 3122 134
Q 2881 22 2623 -34
Q 2366 -91 2075 -91
Q 1284 -91 818 406
Q 353 903 353 1747
Q 353 2603 823 3093
Q 1294 3584 2113 3584
Q 2378 3584 2631 3529
Q 2884 3475 3122 3366
z
" transform="scale(0.015625)"/>
       <path id="DejaVuSans-68" d="M 3513 2113
L 3513 0
L 2938 0
L 2938 2094
Q 2938 2591 2744 2837
Q 2550 3084 2163 3084
Q 1697 3084 1428 2787
Q 1159 2491 1159 1978
L 1159 0
L 581 0
L 581 4863
L 1159 4863
L 1159 2956
Q 1366 3272 1645 3428
Q 1925 3584 2291 3584
Q 2894 3584 3203 3211
Q 3513 2838 3513 2113
z
" transform="scale(0.015625)"/>
      </defs>
      <use xlink:href="#DejaVuSans-65"/>
      <use xlink:href="#DejaVuSans-70" transform="translate(61.523438 0)"/>
      <use xlink:href="#DejaVuSans-6f" transform="translate(125 0)"/>
      <use xlink:href="#DejaVuSans-63" transform="translate(186.181641 0)"/>
      <use xlink:href="#DejaVuSans-68" transform="translate(241.162109 0)"/>
     </g>
    </g>
   </g>
   <g id="matplotlib.axis_2">
    <g id="ytick_1">
     <g id="line2d_17">
      <path d="M 54.02 288.705568
L 637.2 288.705568
" clip-path="url(#p89ee1fbe6e)" style="fill: none; stroke: #b0b0b0; stroke-opacity: 0.3; stroke-width: 0.8; stroke-linecap: square"/>
     </g>
     <g id="line2d_18">
      <defs>
       <path id="m481a9bed30" d="M 0 0
L -3.5 0
" style="stroke: #000000; stroke-width: 0.8"/>
      </defs>
      <g>
       <use xlink:href="#m481a9bed30" x="54.02" y="288.705568" style="stroke: #000000; stroke-width: 0.8"/>
      </g>
     </g>
     <g id="text_10">
      <!-- 0.04 -->
      <g transform="translate(24.754375 292.504787) scale(0.1 -0.1)">
       <defs>
        <path id="DejaVuSans-34" d="M 2419 4116
L 825 1625
L 2419 1625
L 2419 4116
z
M 2253 4666
L 3047 4666
L 3047 1625
L 3713 1625
L 3713 1100
L 3047 1100
L 3047 0
L 2419 0
L 2419 1100
L 313 1100
L 313 1709
L 2253 4666
z
" transform="scale(0.015625)"/>
       </defs>
       <use xlink:href="#DejaVuSans-30"/>
       <use xlink:href="#DejaVuSans-2e" transform="translate(63.623047 0)"/>
       <use xlink:href="#DejaVuSans-30" transform="translate(95.410156 0)"/>
       <use xlink:href="#DejaVuSans-34" transform="translate(159.033203 0)"/>
      </g>
     </g>
    </g>
    <g id="ytick_2">
     <g id="line2d_19">
      <path d="M 54.02 244.755211
L 637.2 244.755211
" clip-path="url(#p89ee1fbe6e)" style="fill: none; stroke: #b0b0b0; stroke-opacity: 0.3; stroke-width: 0.8; stroke-linecap: square"/>
     </g>
     <g id="line2d_20">
      <g>
       <use xlink:href="#m481a9bed30" x="54.02" y="244.755211" style="stroke: #000000; stroke-width: 0.8"/>
      </g>
     </g>
     <g id="text_11">
      <!-- 0.06 -->
      <g transform="translate(24.754375 248.554429) scale(0.1 -0.1)">
       <defs>
        <path id="DejaVuSans-36" d="M 2113 2584
Q 1688 2584 1439 2293
Q 1191 2003 1191 1497
Q 1191 994 1439 701
Q 1688 409 2113 409
Q 2538 409 2786 701
Q 3034 994 3034 1497
Q 3034 2003 2786 2293
Q 2538 2584 2113 2584
z
M 3366 4563
L 3366 3988
Q 3128 4100 2886 4159
Q 2644 4219 2406 4219
Q 1781 4219 1451 3797
Q 1122 3375 1075 2522
Q 1259 2794 1537 2939
Q 1816 3084 2150 3084
Q 2853 3084 3261 2657
Q 3669 2231 3669 1497
Q 3669 778 3244 343
Q 2819 -91 2113 -91
Q 1303 -91 875 529
Q 447 1150 447 2328
Q 447 3434 972 4092
Q 1497 4750 2381 4750
Q 2619 4750 2861 4703
Q 3103 4656 3366 4563
z
" transform="scale(0.015625)"/>
       </defs>
       <use xlink:href="#DejaVuSans-30"/>
       <use xlink:href="#DejaVuSans-2e" transform="translate(63.623047 0)"/>
       <use xlink:href="#DejaVuSans-30" transform="translate(95.410156 0)"/>
       <use xlink:href="#DejaVuSans-36" transform="translate(159.033203 0)"/>
      </g>
     </g>
    </g>
    <g id="ytick_3">
     <g id="line2d_21">
      <path d="M 54.02 200.804853
L 637.2 200.804853
" clip-path="url(#p89ee1fbe6e)" style="fill: none; stroke: #b0b0b0; stroke-opacity: 0.3; stroke-width: 0.8; stroke-linecap: square"/>
     </g>
     <g id="line2d_22">
      <g>
       <use xlink:href="#m481a9bed30" x="54.02" y="200.804853" style="stroke: #000000; stroke-width: 0.8"/>
      </g>
     </g>
     <g id="text_12">
      <!-- 0.08 -->
      <g transform="translate(24.754375 204.604072) scale(0.1 -0.1)">
       <defs>
        <path id="DejaVuSans-38" d="M 2034 2216
Q 1584 2216 1326 1975
Q 1069 1734 1069 1313
Q 1069 891 1326 650
Q 1584 409 2034 409
Q 2484 409 2743 651
Q 3003 894 3003 1313
Q 3003 1734 2745 1975
Q 2488 2216 2034 2216
z
M 1403 2484
Q 997 2584 770 2862
Q 544 3141 544 3541
Q 544 4100 942 4425
Q 1341 4750 2034 4750
Q 2731 4750 3128 4425
Q 3525 4100 3525 3541
Q 3525 3141 3298 2862
Q 3072 2584 2669 2484
Q 3125 2378 3379 2068
Q 3634 1759 3634 1313
Q 3634 634 3220 271
Q 2806 -91 2034 -91
Q 1263 -91 848 271
Q 434 634 434 1313
Q 434 1759 690 2068
Q 947 2378 1403 2484
z
M 1172 3481
Q 1172 3119 1398 2916
Q 1625 2713 2034 2713
Q 2441 2713 2670 2916
Q 2900 3119 2900 3481
Q 2900 3844 2670 4047
Q 2441 4250 2034 4250
Q 1625 4250 1398 4047
Q 1172 3844 1172 3481
z
" transform="scale(0.015625)"/>
       </defs>
       <use xlink:href="#DejaVuSans-30"/>
       <use xlink:href="#DejaVuSans-2e" transform="translate(63.623047 0)"/>
       <use xlink:href="#DejaVuSans-30" transform="translate(95.410156 0)"/>
       <use xlink:href="#DejaVuSans-38" transform="translate(159.033203 0)"/>
      </g>
     </g>
    </g>
    <g id="ytick_4">
     <g id="line2d_23">
      <path d="M 54.02 156.854496
L 637.2 156.854496
" clip-path="url(#p89ee1fbe6e)" style="fill: none; stroke: #b0b0b0; stroke-opacity: 0.3; stroke-width: 0.8; stroke-linecap: square"/>
     </g>
     <g id="line2d_24">
      <g>
       <use xlink:href="#m481a9bed30" x="54.02" y="156.854496" style="stroke: #000000; stroke-width: 0.8"/>
      </g>
     </g>
     <g id="text_13">
      <!-- 0.10 -->
      <g transform="translate(24.754375 160.653715) scale(0.1 -0.1)">
       <use xlink:href="#DejaVuSans-30"/>
       <use xlink:href="#DejaVuSans-2e" transform="translate(63.623047 0)"/>
       <use xlink:href="#DejaVuSans-31" transform="translate(95.410156 0)"/>
       <use xlink:href="#DejaVuSans-30" transform="translate(159.033203 0)"/>
      </g>
     </g>
    </g>
    <g id="ytick_5">
     <g id="line2d_25">
      <path d="M 54.02 112.904139
L 637.2 112.904139
" clip-path="url(#p89ee1fbe6e)" style="fill: none; stroke: #b0b0b0; stroke-opacity: 0.3; stroke-width: 0.8; stroke-linecap: square"/>
     </g>
     <g id="line2d_26">
      <g>
       <use xlink:href="#m481a9bed30" x="54.02" y="112.904139" style="stroke: #000000; stroke-width: 0.8"/>
      </g>
     </g>
     <g id="text_14">
      <!-- 0.12 -->
      <g transform="translate(24.754375 116.703357) scale(0.1 -0.1)">
       <use xlink:href="#DejaVuSans-30"/>
       <use xlink:href="#DejaVuSans-2e" transform="translate(63.623047 0)"/>
       <use xlink:href="#DejaVuSans-31" transform="translate(95.410156 0)"/>
       <use xlink:href="#DejaVuSans-32" transform="translate(159.033203 0)"/>
      </g>
     </g>
    </g>
    <g id="ytick_6">
     <g id="line2d_27">
      <path d="M 54.02 68.953781
L 637.2 68.953781
" clip-path="url(#p89ee1fbe6e)" style="fill: none; stroke: #b0b0b0; stroke-opacity: 0.3; stroke-width: 0.8; stroke-linecap: square"/>
     </g>
     <g id="line2d_28">
      <g>
       <use xlink:href="#m481a9bed30" x="54.02" y="68.953781" style="stroke: #000000; stroke-width: 0.8"/>
      </g>
     </g>
     <g id="text_15">
      <!-- 0.14 -->
      <g transform="translate(24.754375 72.753) scale(0.1 -0.1)">
       <use xlink:href="#DejaVuSans-30"/>
       <use xlink:href="#DejaVuSans-2e" transform="translate(63.623047 0)"/>
       <use xlink:href="#DejaVuSans-31" transform="translate(95.410156 0)"/>
       <use xlink:href="#DejaVuSans-34" transform="translate(159.033203 0)"/>
      </g>
     </g>
    </g>
    <g id="text_16">
     <!-- validation loss -->
     <g transform="translate(18.674688 201.124062) rotate(-90) scale(0.1 -0.1)">
      <defs>
       <path id="DejaVuSans-76" d="M 191 3500
L 800 3500
L 1894 563
L 2988 3500
L 3597 3500
L 2284 0
L 1503 0
L 191 3500
z
" transform="scale(0.015625)"/>
       <path id="DejaVuSans-61" d="M 2194 1759
Q 1497 1759 1228 1600
Q 959 1441 959 1056
Q 959 750 1161 570
Q 1363 391 1709 391
Q 2188 391 2477 730
Q 2766 1069 2766 1631
L 2766 1759
L 2194 1759
z
M 3341 1997
L 3341 0
L 2766 0
L 2766 531
Q 2569 213 2275 61
Q 1981 -91 1556 -91
Q 1019 -91 701 211
Q 384 513 384 1019
Q 384 1609 779 1909
Q 1175 2209 1959 2209
L 2766 2209
L 2766 2266
Q 2766 2663 2505 2880
Q 2244 3097 1772 3097
Q 1472 3097 1187 3025
Q 903 2953 641 2809
L 641 3341
Q 956 3463 1253 3523
Q 1550 3584 1831 3584
Q 2591 3584 2966 3190
Q 3341 2797 3341 1997
z
" transform="scale(0.015625)"/>
       <path id="DejaVuSans-6c" d="M 603 4863
L 1178 4863
L 1178 0
L 603 0
L 603 4863
z
" transform="scale(0.015625)"/>
       <path id="DejaVuSans-69" d="M 603 3500
L 1178 3500
L 1178 0
L 603 0
L 603 3500
z
M 603 4863
L 1178 4863
L 1178 4134
L 603 4134
L 603 4863
z
" transform="scale(0.015625)"/>
       <path id="DejaVuSans-64" d="M 2906 2969
L 2906 4863
L 3481 4863
L 3481 0
L 2906 0
L 2906 525
Q 2725 213 2448 61
Q 2172 -91 1784 -91
Q 1150 -91 751 415
Q 353 922 353 1747
Q 353 2572 751 3078
Q 1150 3584 1784 3584
Q 2172 3584 2448 3432
Q 2725 3281 2906 2969
z
M 947 1747
Q 947 1113 1208 752
Q 1469 391 1925 391
Q 2381 391 2643 752
Q 2906 1113 2906 1747
Q 2906 2381 2643 2742
Q 2381 3103 1925 3103
Q 1469 3103 1208 2742
Q 947 2381 947 1747
z
" transform="scale(0.015625)"/>
       <path id="DejaVuSans-74" d="M 1172 4494
L 1172 3500
L 2356 3500
L 2356 3053
L 1172 3053
L 1172 1153
Q 1172 725 1289 603
Q 1406 481 1766 481
L 2356 481
L 2356 0
L 1766 0
Q 1100 0 847 248
Q 594 497 594 1153
L 594 3053
L 172 3053
L 172 3500
L 594 3500
L 594 4494
L 1172 4494
z
" transform="scale(0.015625)"/>
       <path id="DejaVuSans-6e" d="M 3513 2113
L 3513 0
L 2938 0
L 2938 2094
Q 2938 2591 2744 2837
Q 2550 3084 2163 3084
Q 1697 3084 1428 2787
Q 1159 2491 1159 1978
L 1159 0
L 581 0
L 581 3500
L 1159 3500
L 1159 2956
Q 1366 3272 1645 3428
Q 1925 3584 2291 3584
Q 2894 3584 3203 3211
Q 3513 2838 3513 2113
z
" transform="scale(0.015625)"/>
       <path id="DejaVuSans-20" transform="scale(0.015625)"/>
       <path id="DejaVuSans-73" d="M 2834 3397
L 2834 2853
Q 2591 2978 2328 3040
Q 2066 3103 1784 3103
Q 1356 3103 1142 2972
Q 928 2841 928 2578
Q 928 2378 1081 2264
Q 1234 2150 1697 2047
L 1894 2003
Q 2506 1872 2764 1633
Q 3022 1394 3022 966
Q 3022 478 2636 193
Q 2250 -91 1575 -91
Q 1294 -91 989 -36
Q 684 19 347 128
L 347 722
Q 666 556 975 473
Q 1284 391 1588 391
Q 1994 391 2212 530
Q 2431 669 2431 922
Q 2431 1156 2273 1281
Q 2116 1406 1581 1522
L 1381 1569
Q 847 1681 609 1914
Q 372 2147 372 2553
Q 372 3047 722 3315
Q 1072 3584 1716 3584
Q 2034 3584 2315 3537
Q 2597 3491 2834 3397
z
" transform="scale(0.015625)"/>
      </defs>
      <use xlink:href="#DejaVuSans-76"/>
      <use xlink:href="#DejaVuSans-61" transform="translate(59.179688 0)"/>
      <use xlink:href="#DejaVuSans-6c" transform="translate(120.458984 0)"/>
      <use xlink:href="#DejaVuSans-69" transform="translate(148.242188 0)"/>
      <use xlink:href="#DejaVuSans-64" transform="translate(176.025391 0)"/>
      <use xlink:href="#DejaVuSans-61" transform="translate(239.501953 0)"/>
      <use xlink:href="#DejaVuSans-74" transform="translate(300.78125 0)"/>
      <use xlink:href="#DejaVuSans-69" transform="translate(339.990234 0)"/>
      <use xlink:href="#DejaVuSans-6f" transform="translate(367.773438 0)"/>
      <use xlink:href="#DejaVuSans-6e" transform="translate(428.955078 0)"/>
      <use xlink:href="#DejaVuSans-20" transform="translate(492.333984 0)"/>
      <use xlink:href="#DejaVuSans-6c" transform="translate(524.121094 0)"/>
      <use xlink:href="#DejaVuSans-6f" transform="translate(551.904297 0)"/>
      <use xlink:href="#DejaVuSans-73" transform="translate(613.085938 0)"/>
      <use xlink:href="#DejaVuSans-73" transform="translate(665.185547 0)"/>
     </g>
    </g>
   </g>
   <g id="line2d_29">
    <path d="M 80.528182 63.51
L 108.431531 153.504289
L 136.33488 190.074597
L 164.23823 215.520862
L 192.141579 233.389151
L 220.044928 232.848328
L 247.948278 244.54149
L 275.851627 241.701315
L 303.754976 248.234851
L 331.658325 253.057878
L 359.561675 256.950973
L 387.465024 250.530559
L 415.368373 256.645545
L 443.271722 255.674429
L 471.175072 261.133278
L 499.078421 254.098142
L 526.98177 259.534882
L 554.88512 263.483714
L 582.788469 255.331907
L 610.691818 267.01
" clip-path="url(#p89ee1fbe6e)" style="fill: none; stroke: #1f77b4; stroke-width: 2; stroke-linecap: square"/>
    <defs>
     <path id="m31befcd20c" d="M 0 3
C 0.795609 3 1.55874 2.683901 2.12132 2.12132
C 2.683901 1.55874 3 0.795609 3 0
C 3 -0.795609 2.683901 -1.55874 2.12132 -2.12132
C 1.55874 -2.683901 0.795609 -3 0 -3
C -0.795609 -3 -1.55874 -2.683901 -2.12132 -2.12132
C -2.683901 -1.55874 -3 -0.795609 -3 0
C -3 0.795609 -2.683901 1.55874 -2.12132 2.12132
C -1.55874 2.683901 -0.795609 3 0 3
z
" style="stroke: #1f77b4"/>
    </defs>
    <g clip-path="url(#p89ee1fbe6e)">
     <use xlink:href="#m31befcd20c" x="80.528182" y="63.51" style="fill: #1f77b4; stroke: #1f77b4"/>
     <use xlink:href="#m31befcd20c" x="108.431531" y="153.504289" style="fill: #1f77b4; stroke: #1f77b4"/>
     <use xlink:href="#m31befcd20c" x="136.33488" y="190.074597" style="fill: #1f77b4; stroke: #1f77b4"/>
     <use xlink:href="#m31befcd20c" x="164.23823" y="215.520862" style="fill: #1f77b4; stroke: #1f77b4"/>
     <use xlink:href="#m31befcd20c" x="192.141579" y="233.389151" style="fill: #1f77b4; stroke: #1f77b4"/>
     <use xlink:href="#m31befcd20c" x="220.044928" y="232.848328" style="fill: #1f77b4; stroke: #1f77b4"/>
     <use xlink:href="#m31befcd20c" x="247.948278" y="244.54149" style="fill: #1f77b4; stroke: #1f77b4"/>
     <use xlink:href="#m31befcd20c" x="275.851627" y="241.701315" style="fill: #1f77b4; stroke: #1f77b4"/>
     <use xlink:href="#m31befcd20c" x="303.754976" y="248.234851" style="fill: #1f77b4; stroke: #1f77b4"/>
     <use xlink:href="#m31befcd20c" x="331.658325" y="253.057878" style="fill: #1f77b4; stroke: #1f77b4"/>
     <use xlink:href="#m31befcd20c" x="359.561675" y="256.950973" style="fill: #1f77b4; stroke: #1f77b4"/>
     <use xlink:href="#m31befcd20c" x="387.465024" y="250.530559" style="fill: #1f77b4; stroke: #1f77b4"/>
     <use xlink:href="#m31befcd20c" x="415.368373" y="256.645545" style="fill: #1f77b4; stroke: #1f77b4"/>
     <use xlink:href="#m31befcd20c" x="443.271722" y="255.674429" style="fill: #1f77b4; stroke: #1f77b4"/>
     <use xlink:href="#m31befcd20c" x="471.175072" y="261.133278" style="fill: #1f77b4; stroke: #1f77b4"/>
     <use xlink:href="#m31befcd20c" x="499.078421" y="254.098142" style="fill: #1f77b4; stroke: #1f77b4"/>
     <use xlink:href="#m31befcd20c" x="526.98177" y="259.534882" style="fill: #1f77b4; stroke: #1f77b4"/>
     <use xlink:href="#m31befcd20c" x="554.88512" y="263.483714" style="fill: #1f77b4; stroke: #1f77b4"/>
     <use xlink:href="#m31befcd20c" x="582.788469" y="255.331907" style="fill: #1f77b4; stroke: #1f77b4"/>
     <use xlink:href="#m31befcd20c" x="610.691818" y="267.01" style="fill: #1f77b4; stroke: #1f77b4"/>
    </g>
   </g>
   <g id="line2d_30">
    <path d="M 80.528182 126.082731
L 108.431531 183.25056
L 136.33488 195.40519
L 164.23823 219.834306
L 192.141579 231.589335
L 220.044928 236.210315
L 247.948278 230.634749
L 275.851627 241.656929
L 303.754976 244.412632
L 331.658325 245.407447
L 359.561675 243.921324
L 387.465024 245.241507
L 415.368373 251.039926
L 443.271722 242.881575
L 471.175072 254.296095
L 499.078421 246.061207
L 526.98177 256.766127
L 554.88512 254.605593
L 582.788469 248.529798
L 610.691818 249.552838
" clip-path="url(#p89ee1fbe6e)" style="fill: none; stroke: #ff7f0e; stroke-width: 2; stroke-linecap: square"/>
    <defs>
     <path id="m088b36275e" d="M 0 3
C 0.795609 3 1.55874 2.683901 2.12132 2.12132
C 2.683901 1.55874 3 0.795609 3 0
C 3 -0.795609 2.683901 -1.55874 2.12132 -2.12132
C 1.55874 -2.683901 0.795609 -3 0 -3
C -0.795609 -3 -1.55874 -2.683901 -2.12132 -2.12132
C -2.683901 -1.55874 -3 -0.795609 -3 0
C -3 0.795609 -2.683901 1.55874 -2.12132 2.12132
C -1.55874 2.683901 -0.795609 3 0 3
z
" style="stroke: #ff7f0e"/>
    </defs>
    <g clip-path="url(#p89ee1fbe6e)">
     <use xlink:href="#m088b36275e" x="80.528182" y="126.082731" style="fill: #ff7f0e; stroke: #ff7f0e"/>
     <use xlink:href="#m088b36275e" x="108.431531" y="183.25056" style="fill: #ff7f0e; stroke: #ff7f0e"/>
     <use xlink:href="#m088b36275e" x="136.33488" y="195.40519" style="fill: #ff7f0e; stroke: #ff7f0e"/>
     <use xlink:href="#m088b36275e" x="164.23823" y="219.834306" style="fill: #ff7f0e; stroke: #ff7f0e"/>
     <use xlink:href="#m088b36275e" x="192.141579" y="231.589335" style="fill: #ff7f0e; stroke: #ff7f0e"/>
     <use xlink:href="#m088b36275e" x="220.044928" y="236.210315" style="fill: #ff7f0e; stroke: #ff7f0e"/>
     <use xlink:href="#m088b36275e" x="247.948278" y="230.634749" style="fill: #ff7f0e; stroke: #ff7f0e"/>
     <use xlink:href="#m088b36275e" x="275.851627" y="241.656929" style="fill: #ff7f0e; stroke: #ff7f0e"/>
     <use xlink:href="#m088b36275e" x="303.754976" y="244.412632" style="fill: #ff7f0e; stroke: #ff7f0e"/>
     <use xlink:href="#m088b36275e" x="331.658325" y="245.407447" style="fill: #ff7f0e; stroke: #ff7f0e"/>
     <use xlink:href="#m088b36275e" x="359.561675" y="243.921324" style="fill: #ff7f0e; stroke: #ff7f0e"/>
     <use xlink:href="#m088b36275e" x="387.465024" y="245.241507" style="fill: #ff7f0e; stroke: #ff7f0e"/>
     <use xlink:href="#m088b36275e" x="415.368373" y="251.039926" style="fill: #ff7f0e; stroke: #ff7f0e"/>
     <use xlink:href="#m088b36275e" x="443.271722" y="242.881575" style="fill: #ff7f0e; stroke: #ff7f0e"/>
     <use xlink:href="#m088b36275e" x="471.175072" y="254.296095" style="fill: #ff7f0e; stroke: #ff7f0e"/>
     <use xlink:href="#m088b36275e" x="499.078421" y="246.061207" style="fill: #ff7f0e; stroke: #ff7f0e"/>
     <use xlink:href="#m088b36275e" x="526.98177" y="256.766127" style="fill: #ff7f0e; stroke: #ff7f0e"/>
     <use xlink:href="#m088b36275e" x="554.88512" y="254.605593" style="fill: #ff7f0e; stroke: #ff7f0e"/>
     <use xlink:href="#m088b36275e" x="582.788469" y="248.529798" style="fill: #ff7f0e; stroke: #ff7f0e"/>
     <use xlink:href="#m088b36275e" x="610.691818" y="249.552838" style="fill: #ff7f0e; stroke: #ff7f0e"/>
    </g>
   </g>
   <g id="line2d_31">
    <path d="M 80.528182 129.854036
L 108.431531 201.633784
L 136.33488 234.263823
L 164.23823 242.846667
L 192.141579 253.549842
L 220.044928 257.884839
L 247.948278 261.255714
L 275.851627 262.670792
L 303.754976 262.133902
L 331.658325 263.163574
L 359.561675 262.99424
L 387.465024 264.63477
L 415.368373 263.99738
L 443.271722 263.659704
L 471.175072 264.410509
L 499.078421 262.189179
L 526.98177 262.562955
L 554.88512 264.129016
L 582.788469 264.246012
L 610.691818 263.479504
" clip-path="url(#p89ee1fbe6e)" style="fill: none; stroke: #2ca02c; stroke-width: 2; stroke-linecap: square"/>
    <defs>
     <path id="md844b60003" d="M 0 3
C 0.795609 3 1.55874 2.683901 2.12132 2.12132
C 2.683901 1.55874 3 0.795609 3 0
C 3 -0.795609 2.683901 -1.55874 2.12132 -2.12132
C 1.55874 -2.683901 0.795609 -3 0 -3
C -0.795609 -3 -1.55874 -2.683901 -2.12132 -2.12132
C -2.683901 -1.55874 -3 -0.795609 -3 0
C -3 0.795609 -2.683901 1.55874 -2.12132 2.12132
C -1.55874 2.683901 -0.795609 3 0 3
z
" style="stroke: #2ca02c"/>
    </defs>
    <g clip-path="url(#p89ee1fbe6e)">
     <use xlink:href="#md844b60003" x="80.528182" y="129.854036" style="fill: #2ca02c; stroke: #2ca02c"/>
     <use xlink:href="#md844b60003" x="108.431531" y="201.633784" style="fill: #2ca02c; stroke: #2ca02c"/>
     <use xlink:href="#md844b60003" x="136.33488" y="234.263823" style="fill: #2ca02c; stroke: #2ca02c"/>
     <use xlink:href="#md844b60003" x="164.23823" y="242.846667" style="fill: #2ca02c; stroke: #2ca02c"/>
     <use xlink:href="#md844b60003" x="192.141579" y="253.549842" style="fill: #2ca02c; stroke: #2ca02c"/>
     <use xlink:href="#md844b60003" x="220.044928" y="257.884839" style="fill: #2ca02c; stroke: #2ca02c"/>
     <use xlink:href="#md844b60003" x="247.948278" y="261.255714" style="fill: #2ca02c; stroke: #2ca02c"/>
     <use xlink:href="#md844b60003" x="275.851627" y="262.670792" style="fill: #2ca02c; stroke: #2ca02c"/>
     <use xlink:href="#md844b60003" x="303.754976" y="262.133902" style="fill: #2ca02c; stroke: #2ca02c"/>
     <use xlink:href="#md844b60003" x="331.658325" y="263.163574" style="fill: #2ca02c; stroke: #2ca02c"/>
     <use xlink:href="#md844b60003" x="359.561675" y="262.99424" style="fill: #2ca02c; stroke: #2ca02c"/>
     <use xlink:href="#md844b60003" x="387.465024" y="264.63477" style="fill: #2ca02c; stroke: #2ca02c"/>
     <use xlink:href="#md844b60003" x="415.368373" y="263.99738" style="fill: #2ca02c; stroke: #2ca02c"/>
     <use xlink:href="#md844b60003" x="443.271722" y="263.659704" style="fill: #2ca02c; stroke: #2ca02c"/>
     <use xlink:href="#md844b60003" x="471.175072" y="264.410509" style="fill: #2ca02c; stroke: #2ca02c"/>
     <use xlink:href="#md844b60003" x="499.078421" y="262.189179" style="fill: #2ca02c; stroke: #2ca02c"/>
     <use xlink:href="#md844b60003" x="526.98177" y="262.562955" style="fill: #2ca02c; stroke: #2ca02c"/>
     <use xlink:href="#md844b60003" x="554.88512" y="264.129016" style="fill: #2ca02c; stroke: #2ca02c"/>
     <use xlink:href="#md844b60003" x="582.788469" y="264.246012" style="fill: #2ca02c; stroke: #2ca02c"/>
     <use xlink:href="#md844b60003" x="610.691818" y="263.479504" style="fill: #2ca02c; stroke: #2ca02c"/>
    </g>
   </g>
   <g id="patch_3">
    <path d="M 54.02 303.64
L 54.02 26.88
" style="fill: none; stroke: #000000; stroke-width: 0.8; stroke-linejoin: miter; stroke-linecap: square"/>
   </g>
   <g id="patch_4">
    <path d="M 637.2 303.64
L 637.2 26.88
" style="fill: none; stroke: #000000; stroke-width: 0.8; stroke-linejoin: miter; stroke-linecap: square"/>
   </g>
   <g id="patch_5">
    <path d="M 54.02 303.64
L 637.2 303.64
" style="fill: none; stroke: #000000; stroke-width: 0.8; stroke-linejoin: miter; stroke-linecap: square"/>
   </g>
   <g id="patch_6">
    <path d="M 54.02 26.88
L 637.2 26.88
" style="fill: none; stroke: #000000; stroke-width: 0.8; stroke-linejoin: miter; stroke-linecap: square"/>
   </g>
   <g id="text_17">
    <!-- 학습률 비교 - validation loss -->
    <g transform="translate(276.683125 20.88) scale(0.12 -0.12)">
     <defs>
      <path id="DejaVuSans-d559" d="M 319 -1131
L 319 4513
L 3519 4513
L 3519 -1131
L 319 -1131
z
M 678 -775
L 3163 -775
L 3163 4153
L 678 4153
L 678 -775
z
" transform="scale(0.015625)"/>
      <path id="DejaVuSans-c2b5" d="M 319 -1131
L 319 4513
L 3519 4513
L 3519 -1131
L 319 -1131
z
M 678 -775
L 3163 -775
L 3163 4153
L 678 4153
L 678 -775
z
" transform="scale(0.015625)"/>
      <path id="DejaVuSans-b960" d="M 319 -1131
L 319 4513
L 3519 4513
L 3519 -1131
L 319 -1131
z
M 678 -775
L 3163 -775
L 3163 4153
L 678 4153
L 678 -775
z
" transform="scale(0.015625)"/>
      <path id="DejaVuSans-be44" d="M 319 -1131
L 319 4513
L 3519 4513
L 3519 -1131
L 319 -1131
z
M 678 -775
L 3163 -775
L 3163 4153
L 678 4153
L 678 -775
z
" transform="scale(0.015625)"/>
      <path id="DejaVuSans-ad50" d="M 319 -1131
L 319 4513
L 3519 4513
L 3519 -1131
L 319 -1131
z
M 678 -775
L 3163 -775
L 3163 4153
L 678 4153
L 678 -775
z
" transform="scale(0.015625)"/>
      <path id="DejaVuSans-2d" d="M 313 2009
L 1997 2009
L 1997 1497
L 313 1497
L 313 2009
z
" transform="scale(0.015625)"/>
     </defs>
     <use xlink:href="#DejaVuSans-d559"/>
     <use xlink:href="#DejaVuSans-c2b5" transform="translate(60.009766 0)"/>
     <use xlink:href="#DejaVuSans-b960" transform="translate(120.019531 0)"/>
     <use xlink:href="#DejaVuSans-20" transform="translate(180.029297 0)"/>
     <use xlink:href="#DejaVuSans-be44" transform="translate(211.816406 0)"/>
     <use xlink:href="#DejaVuSans-ad50" transform="translate(271.826172 0)"/>
     <use xlink:href="#DejaVuSans-20" transform="translate(331.835938 0)"/>
     <use xlink:href="#DejaVuSans-2d" transform="translate(363.623047 0)"/>
     <use xlink:href="#DejaVuSans-20" transform="translate(399.707031 0)"/>
     <use xlink:href="#DejaVuSans-76" transform="translate(431.494141 0)"/>
     <use xlink:href="#DejaVuSans-61" transform="translate(490.673828 0)"/>
     <use xlink:href="#DejaVuSans-6c" transform="translate(551.953125 0)"/>
     <use xlink:href="#DejaVuSans-69" transform="translate(579.736328 0)"/>
     <use xlink:href="#DejaVuSans-64" transform="translate(607.519531 0)"/>
     <use xlink:href="#DejaVuSans-61" transform="translate(670.996094 0)"/>
     <use xlink:href="#DejaVuSans-74" transform="translate(732.275391 0)"/>
     <use xlink:href="#DejaVuSans-69" transform="translate(771.484375 0)"/>
     <use xlink:href="#DejaVuSans-6f" transform="translate(799.267578 0)"/>
     <use xlink:href="#DejaVuSans-6e" transform="translate(860.449219 0)"/>
     <use xlink:href="#DejaVuSans-20" transform="translate(923.828125 0)"/>
     <use xlink:href="#DejaVuSans-6c" transform="translate(955.615234 0)"/>
     <use xlink:href="#DejaVuSans-6f" transform="translate(983.398438 0)"/>
     <use xlink:href="#DejaVuSans-73" transform="translate(1044.580078 0)"/>
     <use xlink:href="#DejaVuSans-73" transform="translate(1096.679688 0)"/>
    </g>
   </g>
   <g id="legend_1">
    <g id="patch_7">
     <path d="M 522.91875 79.74875
L 630.2 79.74875
Q 632.2 79.74875 632.2 77.74875
L 632.2 33.88
Q 632.2 31.88 630.2 31.88
L 522.91875 31.88
Q 520.91875 31.88 520.91875 33.88
L 520.91875 77.74875
Q 520.91875 79.74875 522.91875 79.74875
z
" style="fill: #ffffff; opacity: 0.8; stroke: #cccccc; stroke-linejoin: miter"/>
    </g>
    <g id="line2d_32">
     <path d="M 524.91875 39.978437
L 534.91875 39.978437
L 544.91875 39.978437
" style="fill: none; stroke: #1f77b4; stroke-width: 2; stroke-linecap: square"/>
     <g>
      <use xlink:href="#m31befcd20c" x="534.91875" y="39.978437" style="fill: #1f77b4; stroke: #1f77b4"/>
     </g>
    </g>
    <g id="text_18">
     <!-- adam_baseline -->
     <g transform="translate(552.91875 43.478437) scale(0.1 -0.1)">
      <defs>
       <path id="DejaVuSans-6d" d="M 3328 2828
Q 3544 3216 3844 3400
Q 4144 3584 4550 3584
Q 5097 3584 5394 3201
Q 5691 2819 5691 2113
L 5691 0
L 5113 0
L 5113 2094
Q 5113 2597 4934 2840
Q 4756 3084 4391 3084
Q 3944 3084 3684 2787
Q 3425 2491 3425 1978
L 3425 0
L 2847 0
L 2847 2094
Q 2847 2600 2669 2842
Q 2491 3084 2119 3084
Q 1678 3084 1418 2786
Q 1159 2488 1159 1978
L 1159 0
L 581 0
L 581 3500
L 1159 3500
L 1159 2956
Q 1356 3278 1631 3431
Q 1906 3584 2284 3584
Q 2666 3584 2933 3390
Q 3200 3197 3328 2828
z
" transform="scale(0.015625)"/>
       <path id="DejaVuSans-5f" d="M 3263 -1063
L 3263 -1509
L -63 -1509
L -63 -1063
L 3263 -1063
z
" transform="scale(0.015625)"/>
       <path id="DejaVuSans-62" d="M 3116 1747
Q 3116 2381 2855 2742
Q 2594 3103 2138 3103
Q 1681 3103 1420 2742
Q 1159 2381 1159 1747
Q 1159 1113 1420 752
Q 1681 391 2138 391
Q 2594 391 2855 752
Q 3116 1113 3116 1747
z
M 1159 2969
Q 1341 3281 1617 3432
Q 1894 3584 2278 3584
Q 2916 3584 3314 3078
Q 3713 2572 3713 1747
Q 3713 922 3314 415
Q 2916 -91 2278 -91
Q 1894 -91 1617 61
Q 1341 213 1159 525
L 1159 0
L 581 0
L 581 4863
L 1159 4863
L 1159 2969
z
" transform="scale(0.015625)"/>
      </defs>
      <use xlink:href="#DejaVuSans-61"/>
      <use xlink:href="#DejaVuSans-64" transform="translate(61.279297 0)"/>
      <use xlink:href="#DejaVuSans-61" transform="translate(124.755859 0)"/>
      <use xlink:href="#DejaVuSans-6d" transform="translate(186.035156 0)"/>
      <use xlink:href="#DejaVuSans-5f" transform="translate(283.447266 0)"/>
      <use xlink:href="#DejaVuSans-62" transform="translate(333.447266 0)"/>
      <use xlink:href="#DejaVuSans-61" transform="translate(396.923828 0)"/>
      <use xlink:href="#DejaVuSans-73" transform="translate(458.203125 0)"/>
      <use xlink:href="#DejaVuSans-65" transform="translate(510.302734 0)"/>
      <use xlink:href="#DejaVuSans-6c" transform="translate(571.826172 0)"/>
      <use xlink:href="#DejaVuSans-69" transform="translate(599.609375 0)"/>
      <use xlink:href="#DejaVuSans-6e" transform="translate(627.392578 0)"/>
      <use xlink:href="#DejaVuSans-65" transform="translate(690.771484 0)"/>
     </g>
    </g>
    <g id="line2d_33">
     <path d="M 524.91875 54.934687
L 534.91875 54.934687
L 544.91875 54.934687
" style="fill: none; stroke: #ff7f0e; stroke-width: 2; stroke-linecap: square"/>
     <g>
      <use xlink:href="#m088b36275e" x="534.91875" y="54.934687" style="fill: #ff7f0e; stroke: #ff7f0e"/>
     </g>
    </g>
    <g id="text_19">
     <!-- adam_lr_0_01 -->
     <g transform="translate(552.91875 58.434687) scale(0.1 -0.1)">
      <defs>
       <path id="DejaVuSans-72" d="M 2631 2963
Q 2534 3019 2420 3045
Q 2306 3072 2169 3072
Q 1681 3072 1420 2755
Q 1159 2438 1159 1844
L 1159 0
L 581 0
L 581 3500
L 1159 3500
L 1159 2956
Q 1341 3275 1631 3429
Q 1922 3584 2338 3584
Q 2397 3584 2469 3576
Q 2541 3569 2628 3553
L 2631 2963
z
" transform="scale(0.015625)"/>
      </defs>
      <use xlink:href="#DejaVuSans-61"/>
      <use xlink:href="#DejaVuSans-64" transform="translate(61.279297 0)"/>
      <use xlink:href="#DejaVuSans-61" transform="translate(124.755859 0)"/>
      <use xlink:href="#DejaVuSans-6d" transform="translate(186.035156 0)"/>
      <use xlink:href="#DejaVuSans-5f" transform="translate(283.447266 0)"/>
      <use xlink:href="#DejaVuSans-6c" transform="translate(333.447266 0)"/>
      <use xlink:href="#DejaVuSans-72" transform="translate(361.230469 0)"/>
      <use xlink:href="#DejaVuSans-5f" transform="translate(402.34375 0)"/>
      <use xlink:href="#DejaVuSans-30" transform="translate(452.34375 0)"/>
      <use xlink:href="#DejaVuSans-5f" transform="translate(515.966797 0)"/>
      <use xlink:href="#DejaVuSans-30" transform="translate(565.966797 0)"/>
      <use xlink:href="#DejaVuSans-31" transform="translate(629.589844 0)"/>
     </g>
    </g>
    <g id="line2d_34">
     <path d="M 524.91875 69.890938
L 534.91875 69.890938
L 544.91875 69.890938
" style="fill: none; stroke: #2ca02c; stroke-width: 2; stroke-linecap: square"/>
     <g>
      <use xlink:href="#md844b60003" x="534.91875" y="69.890938" style="fill: #2ca02c; stroke: #2ca02c"/>
     </g>
    </g>
    <g id="text_20">
     <!-- adam_lr_decay -->
     <g transform="translate(552.91875 73.390938) scale(0.1 -0.1)">
      <defs>
       <path id="DejaVuSans-79" d="M 2059 -325
Q 1816 -950 1584 -1140
Q 1353 -1331 966 -1331
L 506 -1331
L 506 -850
L 844 -850
Q 1081 -850 1212 -737
Q 1344 -625 1503 -206
L 1606 56
L 191 3500
L 800 3500
L 1894 763
L 2988 3500
L 3597 3500
L 2059 -325
z
" transform="scale(0.015625)"/>
      </defs>
      <use xlink:href="#DejaVuSans-61"/>
      <use xlink:href="#DejaVuSans-64" transform="translate(61.279297 0)"/>
      <use xlink:href="#DejaVuSans-61" transform="translate(124.755859 0)"/>
      <use xlink:href="#DejaVuSans-6d" transform="translate(186.035156 0)"/>
      <use xlink:href="#DejaVuSans-5f" transform="translate(283.447266 0)"/>
      <use xlink:href="#DejaVuSans-6c" transform="translate(333.447266 0)"/>
      <use xlink:href="#DejaVuSans-72" transform="translate(361.230469 0)"/>
      <use xlink:href="#DejaVuSans-5f" transform="translate(402.34375 0)"/>
      <use xlink:href="#DejaVuSans-64" transform="translate(452.34375 0)"/>
      <use xlink:href="#DejaVuSans-65" transform="translate(515.820312 0)"/>
      <use xlink:href="#DejaVuSans-63" transform="translate(577.34375 0)"/>
      <use xlink:href="#DejaVuSans-61" transform="translate(632.324219 0)"/>
      <use xlink:href="#DejaVuSans-79" transform="translate(693.603516 0)"/>
     </g>
    </g>
   </g>
  </g>
 </g>
 <defs>
  <clipPath id="p89ee1fbe6e">
   <rect x="54.02" y="26.88" width="583.18" height="276.76"/>
  </clipPath>
 </defs>
</svg>
