<svg xmlns="http://www.w3.org/2000/svg" width="820" height="390" viewBox="0 0 820 390" role="img">
<rect width="100%" height="100%" fill="#ffffff"/>
<style>
text{font-family:Arial,Helvetica,sans-serif;fill:#111827}
.title{font-size:20px;font-weight:700}
.label{font-size:12px;fill:#4b5563}
.small{font-size:11px;fill:#6b7280}
.axis{stroke:#374151;stroke-width:1.2}
.grid{stroke:#e5e7eb;stroke-width:1}
</style>
<text x="82" y="30" class="title">BatchNorm and Dropout - final gap</text>
<line x1="82" y1="297" x2="702" y2="297" class="axis"/>
<line x1="82" y1="62" x2="82" y2="297" class="axis"/>
<line x1="82" y1="297.0" x2="702" y2="297.0" class="grid"/>
<text x="74" y="301.0" text-anchor="end" class="small">1.28</text>
<line x1="82" y1="238.2" x2="702" y2="238.2" class="grid"/>
<text x="74" y="242.2" text-anchor="end" class="small">1.40</text>
<line x1="82" y1="179.5" x2="702" y2="179.5" class="grid"/>
<text x="74" y="183.5" text-anchor="end" class="small">1.52</text>
<line x1="82" y1="120.8" x2="702" y2="120.8" class="grid"/>
<text x="74" y="124.8" text-anchor="end" class="small">1.64</text>
<line x1="82" y1="62.0" x2="702" y2="62.0" class="grid"/>
<text x="74" y="66.0" text-anchor="end" class="small">1.76</text>
<text x="82.0" y="319" text-anchor="middle" class="small">1</text>
<text x="212.5" y="319" text-anchor="middle" class="small">5</text>
<text x="375.7" y="319" text-anchor="middle" class="small">10</text>
<text x="538.8" y="319" text-anchor="middle" class="small">15</text>
<text x="702.0" y="319" text-anchor="middle" class="small">20</text>
<text x="392.0" y="345" text-anchor="middle" class="label">epoch</text>
<text x="28" y="179.5" transform="rotate(-90 28 179.5)" text-anchor="middle" class="label">gap (%p)</text>
<rect x="161.3" y="249.3" width="48" height="47.7" fill="#2563eb" rx="4"/>
<text x="185.3" y="243.3" text-anchor="middle" class="small">1.38</text>
<text x="185.3" y="321" text-anchor="middle" class="small">adam_baseline</text>
<rect x="368.0" y="274.3" width="48" height="22.7" fill="#16a34a" rx="4"/>
<text x="392.0" y="268.3" text-anchor="middle" class="small">1.33</text>
<text x="392.0" y="321" text-anchor="middle" class="small">no_batchnorm</text>
<rect x="574.7" y="84.7" width="48" height="212.3" fill="#9333ea" rx="4"/>
<text x="598.7" y="78.7" text-anchor="middle" class="small">1.71</text>
<text x="598.7" y="321" text-anchor="middle" class="small">no_dropout</text>
</svg>
